<svg width="30" height="30" viewBox="0 0 30 30" fill="none" xmlns="http://www.w3.org/2000/svg">
<g clip-path="url(#clip0_9_5)">
<circle cx="15" cy="15" r="14.5" fill="#EAAF0F" stroke="#0068B3"/>
<path d="M20.156 21.428L8.97195 21.428C8.71995 21.428 8.52795 21.224 8.52795 20.984C8.52795 20.744 8.73195 20.54 8.97195 20.54L20.168 20.54C20.408 20.54 20.612 20.732 20.612 20.984C20.6 21.224 20.408 21.428 20.156 21.428Z" fill="black"/>
<path d="M16.424 11.996C16.688 11.852 16.94 11.72 17.204 11.576C16.244 11.732 15.404 11.852 14.732 11.924C14.012 11.996 11.828 13.328 11.828 13.328L14.3 13.136C14.96 12.788 15.68 12.392 16.424 11.996ZM24.824 10.16C24.716 9.98 24.632 9.824 23.756 9.692C22.796 9.212 21.08 10.148 19.748 10.868C16.652 12.524 14.672 13.58 12.728 14.624C11.168 14.312 8.71998 13.004 7.69998 13.316C7.13598 13.484 6.15198 14.084 6.15198 14.084C6.15198 14.084 6.99198 14.816 7.93998 15.644C7.31598 16.1 6.89598 16.628 6.87198 16.736C6.85998 16.772 6.87198 16.82 6.89598 16.856C6.91998 16.892 6.97998 16.928 7.02798 16.928C7.15998 16.928 8.09598 16.832 8.85198 16.376C10.448 17.48 11.828 18.632 15.776 16.28L17.18 13.976C17.264 13.844 17.456 13.808 17.588 13.892C17.72 13.976 17.756 14.168 17.672 14.3L14.54 19.016C14.54 19.016 17.024 18.14 17.612 17.456C18.068 16.94 18.98 15.656 19.736 14.588C21.668 13.376 22.232 13.016 23.132 12.44C24.008 11.864 25.088 10.628 24.824 10.16Z" fill="black"/>
</g>
<defs>
<clipPath id="clip0_9_5">
<rect width="30" height="30" fill="white"/>
</clipPath>
</defs>
</svg>
