<svg width="100" height="100" viewBox="0 0 100 100" fill="none" xmlns="http://www.w3.org/2000/svg">
<path d="M10.5 20.7143C10.5 15.0816 15.0816 10.5 20.7143 10.5H79.2857C84.9184 10.5 89.5 15.0816 89.5 20.7143V79.2857C89.5 84.9184 84.9184 89.5 79.2857 89.5H20.7143C15.0816 89.5 10.5 84.9184 10.5 79.2857V20.7143ZM52.9286 48.5H45.6429V39.7857H52.9286C55.3399 39.7857 57.2857 41.7316 57.2857 44.1429C57.2857 46.5542 55.3399 48.5 52.9286 48.5ZM45.6429 63.2143H52.9286C63.4579 63.2143 72 54.6722 72 44.1429C72 33.6135 63.4579 25.0714 52.9286 25.0714H39.75C34.8765 25.0714 30.9286 29.0193 30.9286 33.8929V55.8571V67.5714C30.9286 71.6396 34.2176 74.9286 38.2857 74.9286C42.3539 74.9286 45.6429 71.6396 45.6429 67.5714V63.2143Z" stroke="white" stroke-width="3"/>
</svg>
